PathFileType	4	(X/Y/Z)	Patient4_TMGait_0pt3_03_left_23.trc.trc
DataRate	CameraRate	NumFrames	NumMarkers	Units	OrigDataRate	OrigDataStartFrame	OrigNumFrames
52.631578947368	52.631578947368	6	33	mm	52.631578947368	106	       141
Frame#	Time	Sacral			L.Shoulder			Chest			R.Shoulder			Neck			R.ASIS			L.ASIS			R.Thigh.Superior			R.Thigh.Lateral			R.Thigh.Inferior			R.Patella			L.Thigh.Superior			L.Thigh.Lateral			L.Thigh.Inferior			L.Patella			L.Shank.Superior			L.Shank.Lateral			L.Shank.Inferior			R.Shank.Superior			R.Shank.Lateral			R.Shank.Inferior			R.Heel			R.Midfoot.Superior			R.Midfoot.Lateral			R.Toe			L.Heel			L.Midfoot.Lateral			L.Midfoot.Superior			L.Toe			L.Elbow			L.Wrist			R.Elbow			R.Wrist			
		X1	Y1	Z1	X2	Y2	Z2	X3	Y3	Z3	X4	Y4	Z4	X5	Y5	Z5	X6	Y6	Z6	X7	Y7	Z7	X8	Y8	Z8	X9	Y9	Z9	X10	Y10	Z10	X11	Y11	Z11	X12	Y12	Z12	X13	Y13	Z13	X14	Y14	Z14	X15	Y15	Z15	X16	Y16	Z16	X17	Y17	Z17	X18	Y18	Z18	X19	Y19	Z19	X20	Y20	Z20	X21	Y21	Z21	X22	Y22	Z22	X23	Y23	Z23	X24	Y24	Z24	X25	Y25	Z25	X26	Y26	Z26	X27	Y27	Z27	X28	Y28	Z28	X29	Y29	Z29	X30	Y30	Z30	X31	Y31	Z31	X32	Y32	Z32	X33	Y33	Z33	

106	42.065000000000	701.418017081046	979.285600804120	591.911444989327	869.065804687579	1408.927523998087	401.378749429089	972.733983418297	1346.575812985718	563.958331877468	890.391668294063	1420.403750577267	737.698113500440	850.716100882971	1475.560060677978	558.109048194362	937.466429091440	924.503906544409	705.886838364977	915.550143657159	948.963598640744	432.916096262958	998.924385819002	730.184589843890	657.949820062034	932.724292686867	608.115186815779	711.083185142747	1009.206484677401	567.646591577638	622.351233073765	1017.168845462627	470.369794340873	622.243498346502	1015.421807105848	778.560931920232	467.259995125284	991.673755636635	651.055209374535	382.338638013243	1095.401581296735	596.488682766977	454.376913747115	1113.426606711249	503.009117301364	440.685962807656	1039.983820891996	438.079094934859	424.254261720397	896.134108771894	416.697300161065	366.842857985683	864.467781725198	287.377682683311	411.895334677090	969.304354184903	382.143379550155	628.167787841939	886.291102786492	290.301084903123	696.744168421358	898.326057819125	193.739494710913	627.095642658579	734.939226283470	44.345840518525	610.907374604183	908.976614175118	96.134130370185	633.721219880920	823.112776869920	37.459435122923	679.222937596702	1030.222664984238	43.043139483798	653.301872399213	665.666699082768	245.601507039665	436.912423518972	720.996218625025	198.252378630366	356.097393955112	825.103853225977	191.231888111160	382.157164176766	889.735838767571	72.267629237956	348.720470041897	817.610506172770	1051.852838020368	307.162066157166	852.246023934818	793.146077025377	315.365877506270	980.820817512723	1091.410677822464	871.109913533523	1235.393220585055	1071.245552529445	861.528345252795	
107	42.084000000000	700.578506115305	976.577740141352	594.528398649425	866.302938605980	1406.563742749136	402.452298358506	971.599322646101	1344.111322257287	563.882141400744	891.102961434384	1417.728670793763	738.565329877771	849.667217605913	1473.192780835247	559.128209490927	937.965255851055	922.198560494449	705.816783752104	912.945756107903	946.671724929492	433.055675676568	999.562526109225	728.214742918974	656.491104875884	934.675888275104	605.659075223508	710.026081805687	1010.128662991007	565.708048295706	620.156952769622	1018.067247389639	467.834113078197	619.804387607354	1014.648562254127	778.598679726889	466.840243100529	992.081747192907	650.809813806906	382.165969234810	1096.801852942259	597.695217891614	453.791930099990	1116.501437508196	504.933007754038	439.994883979277	1045.144881018224	438.487273506069	423.554321445969	901.853793062362	411.893414862879	367.238866887124	875.952144437943	281.284873957393	411.650158487119	968.829218283207	379.778798546252	626.361726702593	884.836766838280	289.162018412877	695.635835010095	894.769747476839	192.431243720454	626.213189380820	729.314473840758	44.407574731974	610.933312183995	903.381792524880	95.996184866575	633.516742951958	817.460858307144	37.485718896777	679.243005477339	1024.590752298130	42.757228576334	653.320605932585	679.531500670550	230.604189042948	438.249988146224	735.995750940903	186.959632004190	356.268574868899	840.437851754352	184.586013775062	381.371225919146	910.047247605402	69.555761574573	345.687783054981	805.295082520145	1051.264487692283	308.358328312627	829.249073377206	791.568258904502	318.080541886786	990.112387742649	1091.826515046645	871.067344634958	1244.879287152707	1089.860663069887	856.801928939132	
108	42.103000000000	699.779570972239	974.535904782120	597.084908617339	863.451183048166	1404.842984357386	403.410190132635	970.605659312809	1342.179519898772	563.461255188365	892.249645657110	1415.536782287996	739.202218195148	848.790675166956	1471.360035556802	560.017405968957	938.586007031630	920.293339103513	705.190833832619	910.124711461329	944.842571768373	432.700332845476	999.661076346148	726.393101064007	654.644581088334	935.833339741896	603.614212986589	708.818356510258	1010.005678999245	563.935961300400	617.776929940367	1017.722823425109	465.627222880463	617.257880273132	1013.217280798614	778.617103645713	465.880942543827	991.290258347252	650.503479607867	381.590349094074	1096.815019558879	598.544009815565	452.679437870092	1118.075538560442	506.751578526888	438.822124080691	1049.320990874425	438.779941948880	422.326710147976	907.222095176268	405.748137129476	367.029849043752	888.388270396027	273.894676966734	410.696132350559	967.383835136580	377.763437484884	624.525855869543	882.719787058845	288.178212388076	694.497975519687	890.830655583536	191.311254162010	625.342304152222	723.668972769381	44.454632461695	610.977383631803	897.737083752661	95.861551080416	633.304120219036	811.798757605781	37.501549107504	679.276459537119	1018.934740111655	42.512332639722	653.326099429888	695.447423961353	212.837261953893	438.880082577793	753.104314192100	173.307604331830	355.755031275860	857.633876559122	176.358389038599	379.856869344489	932.813615660777	65.991054227384	341.981900773912	793.352925217980	1051.561749297090	309.396798192139	808.133869622793	791.439358928015	320.646935067991	999.493833002755	1092.983349104399	870.935808351996	1253.140739692755	1108.336418922152	851.935594108291	
109	42.122000000000	699.046191783312	973.347726333932	599.525515196797	860.543225456324	1403.913997455158	404.224027695920	969.771928798076	1340.946543122843	562.674773527711	893.840340002274	1414.009614329812	739.565038760813	848.102258806959	1470.210092990822	560.752588666094	939.289552207739	918.919819291473	704.022642109125	907.131321292996	943.651272333081	431.877115138086	999.135667695200	724.814900001932	652.491967796729	936.037803724689	602.097032056621	707.536110218672	1008.713805454199	562.411251097418	615.342169487034	1016.005036632114	463.848638444647	614.755728816569	1011.119618342989	778.716259624328	464.462863749835	989.282142302837	650.232196156305	380.667619448394	1095.398813110496	599.100409032942	451.116614729997	1118.087409120415	508.532678747773	437.262958014797	1052.428787479882	439.086485959531	420.677041219465	912.310231279776	398.540641044687	366.254773402039	901.702568764537	265.670266871794	409.145398648251	964.848330794727	376.194527050933	622.765490202185	879.832645502931	287.411103035310	693.410729488959	886.454428193328	190.440050462223	624.536694608781	717.995468570180	44.494502382280	611.040524117833	892.038482713140	95.735457171853	633.093920432564	806.122486998260	37.508784127163	679.323214258181	1013.249495031575	42.313901026784	653.320493394540	713.443677195701	193.066383736977	438.828909784160	772.339802540047	157.955333580207	354.663483672838	876.591147169958	167.102689445173	377.783416509625	957.770709445142	62.102602433584	337.941612333557	781.931970599827	1052.813526695053	310.363898200135	788.973015472861	792.623094854401	323.026646172738	1008.902656377391	1095.004629074100	870.654026878646	1260.286656722613	1126.589115740520	846.948382194384	
110	42.141000000000	698.403694141416	973.138869535685	601.785177666456	857.643234693340	1403.867668532805	404.859736947610	969.120764368870	1340.517559813272	561.516511131503	895.860678599322	1413.272795055260	739.613333654976	847.617811100896	1469.837030441302	561.307683073962	940.025467101216	918.169733177972	702.354888970478	904.031046933033	943.216411568851	430.630851635686	997.925255496262	723.554845298787	650.132781917719	935.175478872350	601.188950927939	706.262269904105	1006.186147548243	561.196950927814	612.990078209947	1012.848988852054	462.573086821399	612.450713996597	1008.366482279979	778.948776377297	462.655616794254	986.050349172986	650.063153871262	379.436577085178	1092.534813372273	599.406355809951	449.154626420917	1116.497740024627	510.320911803128	435.396282599985	1054.387862752482	439.514649144552	418.713357584050	917.176282469254	390.583803431441	364.943464350145	915.732478787826	257.111999004428	407.136165154647	961.158866388677	375.142511065948	621.185942004175	876.106202457114	286.908520238418	692.454848434423	881.609301926211	189.863097783994	623.847712847795	712.289264964538	44.534129936220	611.122103270936	886.285466773323	95.620478350752	632.894902935813	800.429018666057	37.509471973898	679.382225185524	1007.532897888665	42.163730355843	653.306726178454	733.387716254163	172.167672152159	438.129949749672	793.588504960926	141.641822455937	353.127553404107	897.092126597062	157.419271196715	375.362214067056	984.526052817054	58.427387203617	333.988756702873	771.161018070110	1055.038575275396	311.309592998361	771.810880326469	794.972800998476	325.192151942606	1018.270683602827	1097.949489515121	870.137466119783	1266.443940029514	1144.539700986829	841.836706949945	
111	42.160000000000	697.873785942724	973.954656543107	603.794374756597	854.841791125440	1404.722239484696	405.278948773909	968.677028276372	1340.920643140840	559.995494055190	898.273810336627	1413.379633440714	739.313467987459	847.352813690827	1470.267289505894	561.654895055624	940.736816849174	918.081791182936	700.256401477276	900.906628723989	943.582528996320	429.019126111825	995.997995500739	722.657293132158	647.675841700358	933.187478866410	600.926720616935	705.077962762851	1002.418140515807	560.330252752619	610.851174011669	1008.260315028801	461.841734504441	610.481275813109	1004.992552641369	779.312133515852	460.516615077923	981.612368679587	650.026271578617	377.919069788341	1088.241281944682	599.474645174793	446.822954118378	1113.303859225365	512.129921617422	433.285346674267	1055.134700251183	440.136413917509	416.539569977382	921.857234328174	382.202645465163	363.117650787046	930.227729773946	248.712298608411	404.819167134292	956.314246285822	374.642254453551	619.881621581387	871.516315366337	286.698486318041	691.702419749204	876.290062093254	189.604633379788	623.318197040788	706.549026308868	44.578481767963	611.219994862299	880.480757485625	95.516176959648	632.712836119847	794.716273332047	37.505397374780	679.451582076819	1001.785880515530	42.060244726935	653.288069885317	754.972684574441	151.060043014798	436.817739188086	816.588079229656	125.128613547275	351.291605150423	918.798883958253	147.900214671819	372.823598751856	1012.563341462854	55.447940390941	330.581972685605	761.148455798225	1058.194715630493	312.241762266331	756.674696703844	798.321880777021	327.127822166860	1027.533183471448	1101.804790423855	869.290567039550	1271.749148419576	1162.109578281813	836.579441056073	
